<svg xmlns="http://www.w3.org/2000/svg" width="29" height="29" viewBox="0 0 29 29">
  <path id="Icon_material-account-box" data-name="Icon material-account-box" d="M4.5,7.722V30.278A3.221,3.221,0,0,0,7.722,33.5H30.278A3.232,3.232,0,0,0,33.5,30.278V7.722A3.232,3.232,0,0,0,30.278,4.5H7.722A3.221,3.221,0,0,0,4.5,7.722Zm19.333,6.444A4.833,4.833,0,1,1,19,9.333,4.827,4.827,0,0,1,23.833,14.167ZM9.333,27.056c0-3.222,6.444-4.994,9.667-4.994s9.667,1.772,9.667,4.994v1.611H9.333Z" transform="translate(-4.5 -4.5)" fill="#fff"/>
</svg>
