<svg xmlns="http://www.w3.org/2000/svg" width="30" height="30" viewBox="0 0 30 30">
  <path id="Icon_open-shield" data-name="Icon open-shield" d="M15,0l-.712.338L1.163,5.85,0,6.337V7.5A26.546,26.546,0,0,0,5.513,23.213a23.847,23.847,0,0,0,4.688,4.8A8.245,8.245,0,0,0,15,30a8.149,8.149,0,0,0,4.8-1.987,23.847,23.847,0,0,0,4.688-4.8A26.546,26.546,0,0,0,30,7.5V6.337L28.838,5.85,15.713.337,15,0Zm0,4.088V26.25a6.168,6.168,0,0,1-2.475-1.163A20.733,20.733,0,0,1,8.55,21,23.478,23.478,0,0,1,3.975,8.7L15,4.125Z" fill="#fff"/>
</svg>
