<svg xmlns="http://www.w3.org/2000/svg" xmlns:xlink="http://www.w3.org/1999/xlink" width="38.391" height="46.648" viewBox="0 0 38.391 46.648">
  <defs>
    <clipPath id="clip-path">
      <rect id="Прямоугольник_25" data-name="Прямоугольник 25" width="38.391" height="46.648" fill="none"/>
    </clipPath>
  </defs>
  <g id="Сгруппировать_19" data-name="Сгруппировать 19" clip-path="url(#clip-path)">
    <path id="Контур_1" data-name="Контур 1" d="M26.666,39.082a2.916,2.916,0,1,1-2.915-2.915,2.915,2.915,0,0,1,2.915,2.915" transform="translate(-2.39 -4.148)" fill="#fff"/>
    <path id="Контур_2" data-name="Контур 2" d="M10.094,23.364A2.062,2.062,0,1,1,8.032,21.3a2.062,2.062,0,0,1,2.062,2.062" transform="translate(-0.685 -2.443)" fill="#fff"/>
    <path id="Контур_3" data-name="Контур 3" d="M2.915,28.686a1.458,1.458,0,1,1-1.458-1.458,1.458,1.458,0,0,1,1.458,1.458" transform="translate(0 -3.123)" fill="#fff"/>
    <path id="Контур_4" data-name="Контур 4" d="M24.453,20.162A1.458,1.458,0,1,1,23,18.7a1.458,1.458,0,0,1,1.458,1.458" transform="translate(-2.471 -2.145)" fill="#fff"/>
    <path id="Контур_5" data-name="Контур 5" d="M7.239,34.331a1.458,1.458,0,1,1-1.458-1.458,1.458,1.458,0,0,1,1.458,1.458" transform="translate(-0.496 -3.77)" fill="#fff"/>
    <path id="Контур_6" data-name="Контур 6" d="M39.275,25.088a1.457,1.457,0,1,1-1.457-1.458,1.457,1.457,0,0,1,1.457,1.458" transform="translate(-4.171 -2.71)" fill="#fff"/>
    <path id="Контур_7" data-name="Контур 7" d="M2.506,22.289a.988.988,0,1,1-.987-.987.987.987,0,0,1,.987.987" transform="translate(-0.061 -2.443)" fill="#fff"/>
    <path id="Контур_8" data-name="Контур 8" d="M10.707,9.921a.988.988,0,1,1-.987-.987.987.987,0,0,1,.987.987" transform="translate(-1.002 -1.024)" fill="#fff"/>
    <path id="Контур_9" data-name="Контур 9" d="M32.067,13.207a.988.988,0,1,1-.987-.987.987.987,0,0,1,.987.987" transform="translate(-3.452 -1.401)" fill="#fff"/>
    <path id="Контур_10" data-name="Контур 10" d="M13.871.987A.988.988,0,1,1,12.884,0a.987.987,0,0,1,.987.987" transform="translate(-1.365 0)" fill="#fff"/>
    <path id="Контур_11" data-name="Контур 11" d="M34.3,18.943a.988.988,0,1,1-.987-.987.987.987,0,0,1,.987.987" transform="translate(-3.707 -2.059)" fill="#fff"/>
    <path id="Контур_12" data-name="Контур 12" d="M43.109,14.322a.988.988,0,1,1-.987-.987.987.987,0,0,1,.987.987" transform="translate(-4.718 -1.529)" fill="#fff"/>
    <path id="Контур_13" data-name="Контур 13" d="M23.2,45.686a7.152,7.152,0,1,1,7.153-7.152A7.161,7.161,0,0,1,23.2,45.686m0-12.534a5.382,5.382,0,1,0,5.383,5.382A5.388,5.388,0,0,0,23.2,33.152" transform="translate(-1.841 -3.599)" fill="#fff"/>
    <path id="Контур_14" data-name="Контур 14" d="M22.61,49.656A11.714,11.714,0,1,1,34.324,37.942,11.728,11.728,0,0,1,22.61,49.656M22.61,28a9.944,9.944,0,1,0,9.944,9.944A9.956,9.956,0,0,0,22.61,28" transform="translate(-1.25 -3.008)" fill="#fff"/>
    <rect id="Прямоугольник_24" data-name="Прямоугольник 24" width="13.794" height="1.77" transform="translate(5.586 21.596) rotate(-45)" fill="#fff"/>
    <path id="Контур_15" data-name="Контур 15" d="M21.1,13.8l-4.405-.027-.027-4.405,8.347-8.347.027,4.405,4.405.027ZM18.452,12.01l1.916.012L25.2,7.195l-1.917-.012-.012-1.916-4.827,4.827Z" transform="translate(-1.912 -0.116)" fill="#fff"/>
  </g>
</svg>
