<svg xmlns="http://www.w3.org/2000/svg" width="30" height="30.008" viewBox="0 0 30 30.008"><path data-name="Icon ionic-ios-settings" d="M27.523 15A3.86 3.86 0 0 1 30 11.4a15.3 15.3 0 0 0-1.852-4.461 3.912 3.912 0 0 1-1.57.336 3.852 3.852 0 0 1-3.523-5.422A15.256 15.256 0 0 0 18.6 0a3.857 3.857 0 0 1-7.2 0 15.3 15.3 0 0 0-4.461 1.852 3.852 3.852 0 0 1-3.523 5.422 3.785 3.785 0 0 1-1.57-.336A15.64 15.64 0 0 0 0 11.406a3.859 3.859 0 0 1 .008 7.2 15.3 15.3 0 0 0 1.851 4.464 3.853 3.853 0 0 1 5.086 5.086 15.391 15.391 0 0 0 4.461 1.852 3.85 3.85 0 0 1 7.188 0 15.3 15.3 0 0 0 4.461-1.852 3.857 3.857 0 0 1 5.086-5.086 15.391 15.391 0 0 0 1.852-4.461A3.879 3.879 0 0 1 27.523 15zM15.07 21.242a6.25 6.25 0 1 1 6.25-6.25 6.248 6.248 0 0 1-6.25 6.25z" fill="#fff"/></svg>