<svg xmlns="http://www.w3.org/2000/svg" width="38.391" height="46.648" viewBox="0 0 38.391 46.648"><defs><clipPath id="a"><path data-name="Прямоугольник 25" fill="none" d="M0 0h38.391v46.648H0z"/></clipPath></defs><g data-name="Сгруппировать 19" clip-path="url(#a)" fill="#fff"><path data-name="Контур 1" d="M24.276 34.934a2.916 2.916 0 1 1-2.915-2.915 2.915 2.915 0 0 1 2.915 2.915"/><path data-name="Контур 2" d="M9.409 20.921a2.062 2.062 0 1 1-2.062-2.064 2.062 2.062 0 0 1 2.062 2.062"/><path data-name="Контур 3" d="M2.915 25.563a1.458 1.458 0 1 1-1.458-1.458 1.458 1.458 0 0 1 1.458 1.458"/><path data-name="Контур 4" d="M21.982 18.017a1.458 1.458 0 1 1-1.453-1.462 1.458 1.458 0 0 1 1.458 1.458"/><path data-name="Контур 5" d="M6.743 30.561a1.458 1.458 0 1 1-1.458-1.458 1.458 1.458 0 0 1 1.458 1.458"/><path data-name="Контур 6" d="M35.104 22.378a1.457 1.457 0 1 1-1.457-1.458 1.457 1.457 0 0 1 1.457 1.458"/><path data-name="Контур 7" d="M2.445 19.846a.988.988 0 1 1-.987-.987.987.987 0 0 1 .987.987"/><path data-name="Контур 8" d="M9.705 8.897a.988.988 0 1 1-.987-.987.987.987 0 0 1 .987.987"/><path data-name="Контур 9" d="M28.615 11.806a.988.988 0 1 1-.987-.987.987.987 0 0 1 .987.987"/><path data-name="Контур 10" d="M12.506.987A.988.988 0 1 1 11.519 0a.987.987 0 0 1 .987.987"/><path data-name="Контур 11" d="M30.593 16.884a.988.988 0 1 1-.987-.987.987.987 0 0 1 .987.987"/><path data-name="Контур 12" d="M38.391 12.793a.988.988 0 1 1-.987-.987.987.987 0 0 1 .987.987"/><path data-name="Контур 13" d="M21.359 42.087a7.152 7.152 0 1 1 7.153-7.152 7.161 7.161 0 0 1-7.153 7.152m0-12.534a5.382 5.382 0 1 0 5.383 5.382 5.388 5.388 0 0 0-5.383-5.382"/><path data-name="Контур 14" d="M21.36 46.648a11.714 11.714 0 1 1 11.714-11.714A11.728 11.728 0 0 1 21.36 46.648m0-21.656a9.944 9.944 0 1 0 9.944 9.944 9.956 9.956 0 0 0-9.944-9.944"/><path data-name="Прямоугольник 24" d="M5.586 21.596l9.754-9.754 1.251 1.252-9.753 9.754z"/><path data-name="Контур 15" d="M19.188 13.684l-4.405-.027-.027-4.405L23.103.905l.027 4.405 4.405.027zm-2.648-1.79l1.916.012 4.832-4.827-1.917-.012-.012-1.916-4.827 4.827z"/></g></svg>